<svg width="24" height="24" viewBox="0 0 24 24" fill="none" xmlns="http://www.w3.org/2000/svg">
<g clip-path="url(#clip0_8_12)">
<path d="M12.0001 0.296948C9.14957 0.295599 6.39166 1.30902 4.22022 3.15572C2.04879 5.00243 0.605647 7.56181 0.149233 10.3756C-0.307181 13.1893 0.252939 16.0736 1.72929 18.512C3.20564 20.9504 5.5018 22.7837 8.20659 23.6834C8.80659 23.7944 9.02709 23.4224 9.02709 23.1059C9.02709 22.8194 9.01509 21.8744 9.01059 20.8724C5.67159 21.5984 4.96809 19.4564 4.96809 19.4564C4.42209 18.0689 3.63609 17.6999 3.63609 17.6999C2.54709 16.9544 3.71859 16.9709 3.71859 16.9709C4.92309 17.0549 5.55759 18.2069 5.55759 18.2069C6.62859 20.0414 8.36559 19.5104 9.04959 19.2044C9.15759 18.4289 9.46809 17.8994 9.81159 17.5994C7.14609 17.2964 4.34409 16.2674 4.34409 11.6684C4.34409 10.3589 4.81359 9.28795 5.58009 8.44795C5.45559 8.14495 5.04459 6.92545 5.69559 5.27245C5.69559 5.27245 6.70359 4.94995 8.99709 6.50245C9.97593 6.23618 10.9857 6.10051 12.0001 6.09895C13.0201 6.10345 14.0476 6.23695 15.0061 6.50245C17.2966 4.94995 18.3031 5.27245 18.3031 5.27245C18.9556 6.92545 18.5461 8.14645 18.4216 8.44795C19.1911 9.28795 19.6561 10.3589 19.6561 11.6684C19.6561 16.2779 16.8481 17.2919 14.1766 17.5889C14.6071 17.9609 14.9911 18.6914 14.9911 19.8104C14.9911 21.4154 14.9776 22.7084 14.9776 23.1029C14.9776 23.4224 15.1936 23.7959 15.8026 23.6789C18.5069 22.7782 20.8022 20.9442 22.2776 18.5053C23.753 16.0665 24.3121 13.1822 23.8548 10.3687C23.3975 7.55528 21.9537 4.99648 19.7818 3.15049C17.61 1.30451 14.852 0.291887 12.0016 0.293948L12.0001 0.296948Z" fill="black"/>
</g>
<defs>
<clipPath id="clip0_8_12">
<rect width="24" height="24" fill="white"/>
</clipPath>
</defs>
</svg>
