<svg width="34" height="34" viewBox="0 0 34 34" fill="none" xmlns="http://www.w3.org/2000/svg">
<g clip-path="url(#clip0_22_56)">
<path d="M2.3834 14.9836C2.43883 14.7202 2.57064 14.4789 2.76237 14.29C2.9541 14.101 3.19725 13.9727 3.46145 13.9211L24.4775 9.78775C24.69 9.74615 24.9099 9.76554 25.1119 9.84369C25.3138 9.92184 25.4895 10.0556 25.6186 10.2294C25.7477 10.4032 25.825 10.61 25.8415 10.8259C25.8581 11.0418 25.8131 11.258 25.7119 11.4494L15.6867 30.3769C15.5692 30.5984 15.3935 30.7835 15.1784 30.9122C14.9634 31.041 14.7172 31.1084 14.4666 31.1073C14.2159 31.1062 13.9704 31.0365 13.7565 30.9059C13.5426 30.7752 13.3685 30.5885 13.2531 30.3661L9.15503 22.4603L2.76922 16.2542C2.60325 16.0919 2.48089 15.8904 2.41345 15.6684C2.34601 15.4463 2.33567 15.2108 2.3834 14.9836ZM10.7245 22.2287L14.4736 29.4618L24.0383 11.4034L3.98736 15.3467L9.82997 21.0246L15.7396 16.6342C15.8993 16.5156 16.0995 16.4653 16.2963 16.4943C16.4931 16.5233 16.6703 16.6293 16.7889 16.789C16.9076 16.9487 16.9579 17.1489 16.9289 17.3457C16.8998 17.5425 16.7938 17.7197 16.6342 17.8383L10.7245 22.2287Z" fill="black"/>
</g>
<defs>
<clipPath id="clip0_22_56">
<rect width="24" height="24" fill="white" transform="translate(0 14.3125) rotate(-36.609)"/>
</clipPath>
</defs>
</svg>
