<svg width="32" height="32" viewBox="0 0 32 32" fill="none" xmlns="http://www.w3.org/2000/svg">
<path d="M2 2H30V30H2V2Z" fill="#F5DE19"/>
<path d="M20.8091 23.875C21.048 24.3593 21.4188 24.7663 21.8787 25.0494C22.3386 25.3324 22.8691 25.4799 23.4091 25.475C24.4991 25.475 25.1961 24.93 25.1961 24.175C25.1961 23.275 24.4801 22.953 23.2801 22.428L22.6221 22.146C20.7221 21.337 19.4621 20.324 19.4621 18.182C19.4621 16.209 20.9621 14.706 23.3151 14.706C24.0768 14.6511 24.8377 14.8216 25.5032 15.1963C26.1686 15.571 26.709 16.1332 27.0571 16.813L25.0001 18.128C24.866 17.791 24.6327 17.5027 24.331 17.3012C24.0294 17.0998 23.6737 16.9947 23.3111 17C23.1528 16.9841 22.993 17.0014 22.8418 17.0508C22.6907 17.1001 22.5514 17.1804 22.433 17.2865C22.3145 17.3926 22.2195 17.5222 22.1539 17.6671C22.0883 17.812 22.0536 17.969 22.0521 18.128C22.0521 18.917 22.5411 19.237 23.6701 19.728L24.3281 20.01C26.5641 20.969 27.8281 21.946 27.8281 24.143C27.8281 26.512 25.9671 27.81 23.4681 27.81C22.4945 27.8714 21.5239 27.6501 20.6732 27.1726C19.8224 26.6952 19.1279 25.982 18.6731 25.119L20.8091 23.875ZM11.5141 24.103C11.9271 24.836 12.3031 25.456 13.2071 25.456C14.0711 25.456 14.6171 25.118 14.6171 23.803V14.856H17.2481V23.838C17.2481 26.562 15.6481 27.802 13.3191 27.802C12.4958 27.847 11.6782 27.6418 10.9738 27.2135C10.2693 26.7851 9.71093 26.1536 9.37207 25.402L11.5141 24.103Z" fill="black"/>
</svg>
