<svg width="24" height="24" viewBox="0 0 24 24" fill="none" xmlns="http://www.w3.org/2000/svg">
<g clip-path="url(#clip0_35_2)">
<path d="M7.01432 7.8657C5.19369 10.2057 5.22557 14.3626 7.55244 16.4232C10.1943 18.7613 13.9124 18.7369 16.2506 16.5863C19.0537 14.0063 18.8924 9.71257 16.4137 7.2807C13.9218 4.8357 9.46869 4.7082 7.01432 7.8657Z" fill="#FCC11A"/>
<path d="M9.93745 7.06315C9.21745 6.7444 8.42995 7.61252 8.08682 8.20502C7.7437 8.7994 7.42495 9.96377 8.1562 10.2619C8.88745 10.5581 9.41245 10.0556 9.93932 9.18752C10.4624 8.3194 10.7606 7.42877 9.93745 7.06315Z" fill="#FEE269"/>
<path d="M11.8126 3.80074C11.6382 4.12699 11.6963 4.37824 12.0432 4.46074C12.3901 4.54324 14.5482 4.89387 14.7301 4.90512C14.9944 4.92199 15.092 4.72324 15.0601 4.49262C15.0263 4.26199 14.4995 1.03137 14.4507 0.735119C14.402 0.438869 14.0888 0.142619 13.7907 0.538244C13.4926 0.933869 11.9438 3.55512 11.8126 3.80074ZM17.4001 6.04324C17.0607 6.14824 17.0701 6.35637 17.252 6.62074C17.4338 6.88512 18.6863 8.79574 18.8007 8.92887C18.9169 9.06012 19.1138 9.09387 19.2788 8.89512C19.4438 8.69824 21.5026 5.81074 21.6526 5.63074C21.9001 5.33449 21.7519 5.02137 21.3732 5.11887C21.0844 5.19574 17.6138 5.97762 17.4001 6.04324ZM19.9876 11.5989C19.7438 11.4601 19.4269 11.4995 19.3444 11.8126C19.2619 12.1257 18.9001 14.4001 18.8663 14.5989C18.8326 14.7976 18.9826 14.9945 19.2282 14.9457C19.4738 14.897 22.8751 14.3926 23.102 14.3364C23.4976 14.237 23.6288 13.8414 23.2182 13.5451C22.952 13.352 20.2182 11.7301 19.9876 11.5989ZM17.2669 16.9876C17.5294 16.847 17.762 16.9539 17.8276 17.252C17.8932 17.5482 18.6188 20.582 18.7351 21.1426C18.7932 21.4239 18.4707 21.6545 18.2082 21.4895C17.9438 21.3245 15.0788 19.3276 14.8951 19.1645C14.6307 18.9339 14.8144 18.6939 14.9438 18.572C15.2063 18.3226 17.0194 17.1207 17.2669 16.9876ZM9.28883 18.6526C8.95695 18.6207 8.85945 18.917 8.91008 19.1795C8.95883 19.4439 9.45383 22.787 9.48758 23.0364C9.53633 23.3982 9.91695 23.5482 10.1626 23.1845C10.4082 22.8207 12.1032 20.1095 12.2401 19.8545C12.4876 19.3932 12.3057 19.2939 12.0582 19.1795C11.8126 19.0651 9.6357 18.6864 9.28883 18.6526ZM4.5432 14.8126C4.77383 14.4339 5.07008 14.5332 5.2857 14.8951C5.43195 15.1426 6.66945 16.8076 6.7857 16.9876C6.90195 17.1695 6.9507 17.5145 6.58883 17.597C6.2232 17.6814 3.27383 18.4557 2.81258 18.5382C2.35133 18.6207 2.08695 18.2589 2.3832 17.8632C2.5557 17.6307 4.41195 15.0282 4.5432 14.8126ZM3.91695 11.9439C4.33883 12.1314 4.53758 12.0639 4.6257 11.762C4.74195 11.3664 5.08695 9.55324 5.10383 9.14074C5.11508 8.87262 5.00445 8.61387 4.59195 8.67949C4.17945 8.74512 1.2132 9.15949 0.834451 9.29074C0.393826 9.44449 0.425701 9.92824 0.718201 10.082C1.06508 10.2639 3.61883 11.8126 3.91695 11.9439ZM9.0432 5.02137C9.28133 4.83199 9.2082 4.56012 8.99445 4.41199C8.7807 4.26387 6.1332 2.34949 5.79758 2.08699C5.50133 1.85637 5.13758 1.93887 5.23695 2.46574C5.3082 2.84449 6.15195 6.15949 6.21008 6.38824C6.2757 6.65262 6.47445 6.78387 6.70508 6.61887C6.93195 6.45574 8.7957 5.22012 9.0432 5.02137Z" fill="#FFA722"/>
</g>
<defs>
<clipPath id="clip0_35_2">
<rect width="24" height="24" fill="white"/>
</clipPath>
</defs>
</svg>
