<svg width="24" height="24" viewBox="0 0 24 24" fill="none" xmlns="http://www.w3.org/2000/svg">
<path d="M17.5576 4.22408C17.9326 5.75408 17.9776 7.41908 17.5726 9.14408C16.6276 13.1416 13.3426 16.2766 9.30759 17.0041C7.12509 17.4016 5.04759 17.1016 3.24009 16.3141C2.82009 16.1266 2.42259 16.6066 2.64009 17.0116C4.62759 20.6716 8.72259 23.0116 13.3051 22.4041C17.9776 21.7816 21.7201 17.9716 22.2826 13.2916C22.7326 9.40658 21.0826 5.89658 18.3226 3.72908C17.9701 3.45908 17.4526 3.78908 17.5576 4.22408Z" fill="#FCD53F"/>
<path d="M20.9027 9.42164C20.9027 9.57627 20.8722 9.72939 20.813 9.87225C20.7539 10.0151 20.6671 10.1449 20.5578 10.2543C20.4484 10.3636 20.3186 10.4503 20.1758 10.5095C20.0329 10.5687 19.8798 10.5991 19.7252 10.5991C19.5705 10.5991 19.4174 10.5687 19.2746 10.5095C19.1317 10.4503 19.0019 10.3636 18.8925 10.2543C18.7832 10.1449 18.6965 10.0151 18.6373 9.87225C18.5781 9.72939 18.5477 9.57627 18.5477 9.42164C18.5477 9.10935 18.6717 8.80985 18.8925 8.58902C19.1134 8.3682 19.4129 8.24414 19.7252 8.24414C20.0375 8.24414 20.337 8.3682 20.5578 8.58902C20.7786 8.80985 20.9027 9.10935 20.9027 9.42164ZM11.2127 19.0816C11.2127 19.2363 11.1822 19.3894 11.123 19.5322C11.0639 19.6751 10.9771 19.8049 10.8678 19.9143C10.7584 20.0236 10.6286 20.1103 10.4858 20.1695C10.3429 20.2287 10.1898 20.2591 10.0352 20.2591C9.88053 20.2591 9.72742 20.2287 9.58456 20.1695C9.4417 20.1103 9.31189 20.0236 9.20255 19.9143C9.09321 19.8049 9.00647 19.6751 8.9473 19.5322C8.88812 19.3894 8.85767 19.2363 8.85767 19.0816C8.85767 18.7693 8.98172 18.4698 9.20255 18.249C9.42337 18.0282 9.72287 17.9041 10.0352 17.9041C10.3475 17.9041 10.647 18.0282 10.8678 18.249C11.0886 18.4698 11.2127 18.7693 11.2127 19.0816ZM20.1002 14.2291C20.2971 14.2291 20.4859 14.1509 20.6252 14.0117C20.7644 13.8724 20.8427 13.6836 20.8427 13.4866C20.8427 13.2897 20.7644 13.1009 20.6252 12.9616C20.4859 12.8224 20.2971 12.7441 20.1002 12.7441C19.9032 12.7441 19.7144 12.8224 19.5751 12.9616C19.4359 13.1009 19.3577 13.2897 19.3577 13.4866C19.3577 13.6836 19.4359 13.8724 19.5751 14.0117C19.7144 14.1509 19.9032 14.2291 20.1002 14.2291ZM18.6002 16.4866C18.6002 16.7821 18.542 17.0747 18.4289 17.3477C18.3158 17.6207 18.1501 17.8687 17.9412 18.0776C17.7322 18.2866 17.4842 18.4523 17.2112 18.5654C16.9382 18.6784 16.6456 18.7366 16.3502 18.7366C16.0547 18.7366 15.7621 18.6784 15.4891 18.5654C15.2161 18.4523 14.9681 18.2866 14.7592 18.0776C14.5502 17.8687 14.3845 17.6207 14.2714 17.3477C14.1584 17.0747 14.1002 16.7821 14.1002 16.4866C14.1002 15.8899 14.3372 15.3176 14.7592 14.8957C15.1811 14.4737 15.7534 14.2366 16.3502 14.2366C16.9469 14.2366 17.5192 14.4737 17.9412 14.8957C18.3631 15.3176 18.6002 15.8899 18.6002 16.4866Z" fill="#F9C23C"/>
</svg>
