<svg width="24" height="24" viewBox="0 0 24 24" fill="none" xmlns="http://www.w3.org/2000/svg">
<path d="M19.7499 9.99995C19.7499 9.80104 19.6709 9.61027 19.5302 9.46962C19.3896 9.32897 19.1988 9.24995 18.9999 9.24995C18.801 9.24995 18.6102 9.32897 18.4696 9.46962C18.3289 9.61027 18.2499 9.80104 18.2499 9.99995H19.7499ZM5.74991 9.99995C5.74991 9.80104 5.67089 9.61027 5.53024 9.46962C5.38959 9.32897 5.19882 9.24995 4.99991 9.24995C4.801 9.24995 4.61023 9.32897 4.46958 9.46962C4.32893 9.61027 4.24991 9.80104 4.24991 9.99995H5.74991ZM20.4699 12.53C20.5386 12.6036 20.6214 12.6627 20.7134 12.7037C20.8054 12.7447 20.9047 12.7668 21.0054 12.7685C21.1061 12.7703 21.2061 12.7518 21.2995 12.7141C21.3929 12.6764 21.4777 12.6202 21.5489 12.549C21.6202 12.4778 21.6763 12.3929 21.714 12.2995C21.7518 12.2062 21.7703 12.1061 21.7685 12.0054C21.7667 11.9047 21.7447 11.8054 21.7037 11.7134C21.6627 11.6214 21.6036 11.5386 21.5299 11.47L20.4699 12.53ZM11.9999 2.99995L12.5299 2.46995C12.3893 2.3295 12.1987 2.25061 11.9999 2.25061C11.8012 2.25061 11.6105 2.3295 11.4699 2.46995L11.9999 2.99995ZM2.46991 11.47C2.39622 11.5386 2.33712 11.6214 2.29613 11.7134C2.25514 11.8054 2.23309 11.9047 2.23132 12.0054C2.22954 12.1061 2.24807 12.2062 2.28579 12.2995C2.32351 12.3929 2.37965 12.4778 2.45087 12.549C2.52209 12.6202 2.60692 12.6764 2.70031 12.7141C2.7937 12.7518 2.89373 12.7703 2.99443 12.7685C3.09513 12.7668 3.19445 12.7447 3.28645 12.7037C3.37845 12.6627 3.46125 12.6036 3.52991 12.53L2.46991 11.47ZM6.99991 21.75H16.9999V20.25H6.99991V21.75ZM19.7499 19V9.99995H18.2499V19H19.7499ZM5.74991 19V9.99995H4.24991V19H5.74991ZM21.5299 11.47L12.5299 2.46995L11.4699 3.52995L20.4699 12.53L21.5299 11.47ZM11.4699 2.46995L2.46991 11.47L3.52991 12.53L12.5299 3.52995L11.4699 2.46995ZM16.9999 21.75C17.7293 21.75 18.4287 21.4602 18.9445 20.9445C19.4602 20.4288 19.7499 19.7293 19.7499 19H18.2499C18.2499 19.69 17.6899 20.25 16.9999 20.25V21.75ZM6.99991 20.25C6.30991 20.25 5.74991 19.69 5.74991 19H4.24991C4.24991 19.7293 4.53964 20.4288 5.05537 20.9445C5.57109 21.4602 6.27056 21.75 6.99991 21.75V20.25Z" fill="black"/>
</svg>
