<svg width="256" height="264" viewBox="0 0 256 264" fill="none" xmlns="http://www.w3.org/2000/svg">
<path d="M255.856 59.6193C255.951 59.9703 256 60.3323 256 60.6963V117.264C256 118.742 255.21 120.107 253.927 120.842L206.45 148.179V202.359C206.45 203.084 206.259 203.796 205.897 204.424C205.535 205.052 205.015 205.574 204.388 205.938L105.28 262.991C105.053 263.119 104.806 263.201 104.558 263.29C104.465 263.32 104.378 263.377 104.28 263.403C103.587 263.586 102.859 263.586 102.166 263.403C102.052 263.373 101.949 263.31 101.841 263.269C101.614 263.186 101.377 263.114 101.161 262.991L2.073 205.937C1.44348 205.576 0.920389 205.055 0.556449 204.426C0.192509 203.798 0.000578768 203.085 0 202.359L0 32.6553C0 32.2833 0.052 31.9223 0.144 31.5723C0.175 31.4533 0.247 31.3453 0.289 31.2263C0.366 31.0103 0.439 30.7883 0.552 30.5873C0.629 30.4533 0.742 30.3453 0.835 30.2213C0.954 30.0563 1.062 29.8863 1.201 29.7413C1.32 29.6233 1.475 29.5353 1.609 29.4323C1.759 29.3083 1.892 29.1743 2.062 29.0763H2.067L51.613 0.550335C52.2406 0.189753 52.9517 0 53.6755 0C54.3993 0 55.1104 0.189753 55.738 0.550335L105.284 29.0763H105.294C105.459 29.1803 105.599 29.3083 105.748 29.4273C105.882 29.5303 106.032 29.6233 106.15 29.7373C106.295 29.8863 106.398 30.0573 106.521 30.2213C106.609 30.3453 106.728 30.4533 106.8 30.5873C106.918 30.7933 106.985 31.0103 107.068 31.2273C107.109 31.3453 107.181 31.4533 107.212 31.5773C107.307 31.9283 107.356 32.2913 107.357 32.6553V138.649L148.643 114.876V60.6913C148.643 60.3313 148.695 59.9643 148.788 59.6193C148.824 59.4953 148.891 59.3873 148.932 59.2693C149.015 59.0523 149.087 58.8293 149.2 58.6293C149.277 58.4953 149.39 58.3873 149.479 58.2633C149.602 58.0983 149.705 57.9283 149.849 57.7833C149.969 57.6653 150.118 57.5773 150.252 57.4743C150.407 57.3503 150.541 57.2163 150.706 57.1183H150.711L200.262 28.5923C200.889 28.2308 201.601 28.0405 202.324 28.0405C203.048 28.0405 203.76 28.2308 204.387 28.5923L253.933 57.1183C254.108 57.2213 254.242 57.3503 254.397 57.4683C254.525 57.5723 254.675 57.6653 254.794 57.7783C254.938 57.9283 255.041 58.0983 255.164 58.2633C255.258 58.3873 255.371 58.4953 255.444 58.6293C255.562 58.8293 255.629 59.0523 255.711 59.2693C255.758 59.3873 255.825 59.4953 255.856 59.6193ZM247.741 114.877V67.8373L230.402 77.8183L206.449 91.6103V138.65L247.746 114.877H247.741ZM198.195 199.972V152.899L174.633 166.356L107.352 204.756V252.27L198.195 199.972ZM8.259 39.7953V199.972L99.092 252.266V204.761L51.64 177.905L51.625 177.895L51.605 177.885C51.445 177.792 51.31 177.658 51.161 177.545C51.031 177.441 50.882 177.359 50.769 177.245L50.759 177.23C50.625 177.101 50.532 176.941 50.419 176.797C50.315 176.657 50.192 176.539 50.109 176.395L50.104 176.379C50.011 176.225 49.954 176.039 49.887 175.864C49.82 175.709 49.733 175.564 49.691 175.4V175.395C49.64 175.199 49.63 174.992 49.609 174.791C49.589 174.637 49.547 174.482 49.547 174.327V63.5693L25.598 49.7713L8.259 39.8013V39.7953ZM53.681 8.89233L12.399 32.6553L53.671 56.4173L94.947 32.6493L53.671 8.89233H53.681ZM75.149 157.19L99.097 143.404V39.7953L81.76 49.7773L57.805 63.5683V167.176L75.149 157.19ZM202.324 36.9343L161.048 60.6963L202.324 84.4593L243.595 60.6913L202.324 36.9343ZM198.194 91.6103L174.241 77.8183L156.903 67.8373V114.877L180.851 128.664L198.195 138.65L198.194 91.6103ZM103.217 197.616L163.76 163.052L194.024 145.78L152.778 122.033L105.289 149.373L62.007 174.291L103.217 197.616Z" fill="#FF2D20"/>
</svg>
